<?xml version="1.0" encoding="utf-8"?>
<!-- Generator: Adobe Illustrator 16.0.0, SVG Export Plug-In . SVG Version: 6.00 Build 0)  -->
<!DOCTYPE svg PUBLIC "-//W3C//DTD SVG 1.1//EN" "http://www.w3.org/Graphics/SVG/1.1/DTD/svg11.dtd">
<svg version="1.1" xmlns="http://www.w3.org/2000/svg" xmlns:xlink="http://www.w3.org/1999/xlink" x="0px" y="0px" width="512px"
	 height="512px" viewBox="0 0 512 512" enable-background="new 0 0 512 512" xml:space="preserve">
<g id="Layer_1" display="none">
	
		<image display="inline" overflow="visible" enable-background="new    " width="1920" height="1080" xlink:href="44271013.png"  transform="matrix(5.3562 0 0 5.3562 -2211.5623 -2722.9221)">
	</image>
	<line display="inline" fill="none" stroke="#000000" stroke-miterlimit="10" x1="204.356" y1="35.903" x2="276.332" y2="48.92"/>
	<polyline display="inline" fill="#4D4D4D" stroke="#000000" stroke-miterlimit="10" points="272.5,95 204.356,35.903 
		275.932,48.848 272.5,95 	"/>
	<line display="inline" fill="none" stroke="#000000" stroke-miterlimit="10" x1="210" y1="154.625" x2="209.75" y2="155.25"/>
	<path display="inline" fill="none" stroke="#000000" stroke-miterlimit="10" d="M203.5,227.375"/>
	<path display="inline" fill="none" stroke="#000000" stroke-miterlimit="10" d="M209.75,155.25"/>
	<path display="inline" fill="none" stroke="#000000" stroke-miterlimit="10" d="M227.5,227.839"/>
	<path display="inline" fill="none" stroke="#000000" stroke-miterlimit="10" d="M203.5,227.375"/>
	<path display="inline" fill="none" stroke="#000000" stroke-miterlimit="10" d="M227.5,227.839"/>
	<path display="inline" fill="none" stroke="#000000" stroke-miterlimit="10" d="M213,154"/>
	<path display="inline" fill="none" stroke="#000000" stroke-miterlimit="10" d="M213,154"/>
	<path display="inline" fill="none" stroke="#000000" stroke-miterlimit="10" d="M210,154.625"/>
	<line display="inline" fill="none" stroke="#000000" stroke-miterlimit="10" x1="267.75" y1="91.625" x2="210" y2="154.625"/>
	<line display="inline" fill="none" stroke="#000000" stroke-miterlimit="10" x1="257.767" y1="102.516" x2="254.25" y2="199"/>
	<line display="inline" fill="none" stroke="#000000" stroke-miterlimit="10" x1="254.25" y1="198.375" x2="254.875" y2="215"/>
	<line display="inline" fill="none" stroke="#000000" stroke-miterlimit="10" x1="254.875" y1="215" x2="286.75" y2="303.875"/>
	<polyline display="inline" fill="#4D4D4D" stroke="#000000" stroke-miterlimit="10" points="213.5,227.839 239.834,220.506 
		209.875,157.172 213.5,227.839 	"/>
	<path display="inline" fill="none" stroke="#000000" stroke-miterlimit="10" d="M260.667,102.516"/>
	<path display="inline" fill="none" stroke="#000000" stroke-miterlimit="10" d="M275.917,172.669"/>
	<line display="inline" fill="none" stroke="#000000" stroke-miterlimit="10" x1="258.5" y1="103.375" x2="258.5" y2="103.5"/>
	<path display="inline" fill="none" stroke="#000000" stroke-miterlimit="10" d="M210,154.625"/>
	<path display="inline" fill="none" stroke="#000000" stroke-miterlimit="10" d="M227.5,227.839"/>
	<polyline display="inline" fill="#4D4D4D" stroke="#000000" stroke-miterlimit="10" points="289.862,235.921 317.193,235.4 
		304.01,166.59 289.862,235.921 	"/>
	<line display="inline" fill="none" stroke="#000000" stroke-miterlimit="10" x1="257.952" y1="102.5" x2="304.323" y2="165.049"/>
	<line display="inline" fill="none" stroke="#000000" stroke-miterlimit="10" x1="254.563" y1="212.713" x2="232" y2="302.331"/>
	<path display="inline" fill="none" stroke="#000000" stroke-miterlimit="10" d="M209.438,391.944"/>
	<path display="inline" fill="none" stroke="#000000" stroke-miterlimit="10" d="M232,302.331"/>
	<polygon display="inline" fill="#4D4D4D" stroke="#000000" stroke-miterlimit="10" points="203.857,407.716 249.857,407.716 
		232.191,301.382 	"/>
	<polygon display="inline" fill="#4D4D4D" stroke="#000000" stroke-miterlimit="10" points="258.138,409.604 304.138,409.604 
		286.472,303.27 	"/>
	<path display="inline" fill="#4D4D4D" stroke="#000000" stroke-miterlimit="10" d="M282.917,57"/>
	<line display="inline" fill="none" x1="19" y1="74.999" x2="131" y2="270.999"/>
	<path display="inline" fill="#FFFFFF" stroke="#FFFFFF" stroke-width="2" d="M586.3,172.302"/>
	<polygon display="inline" fill="#FFFFFF" stroke="#6A0074" stroke-miterlimit="10" points="589.923,196.169 659.255,212.658 
		659.255,255.132 	"/>
</g>
<g id="GLOWA">
	<linearGradient id="SVGID_1_" gradientUnits="userSpaceOnUse" x1="221.3342" y1="189.4832" x2="290.6663" y2="189.4832">
		<stop  offset="0" style="stop-color:#FFFFFF"/>
		<stop  offset="1" style="stop-color:#000000"/>
	</linearGradient>
	<polygon fill="url(#SVGID_1_)" stroke="#000000" stroke-width="3" stroke-miterlimit="10" points="221.334,160.002 
		290.666,176.491 290.666,218.965 	"/>
	<polygon fill="#FFFFFF" stroke="#000000" stroke-miterlimit="10" points="275,178.542 284.75,182.333 285.042,190.333 
		276.583,186.875 	"/>
	<path fill="none" stroke="#000000" stroke-width="3" stroke-miterlimit="10" d="M221.334,160.002"/>
</g>
<g id="tulow">
	
		<linearGradient id="SVGID_2_" gradientUnits="userSpaceOnUse" x1="278.2893" y1="228.2161" x2="360.7903" y2="228.2161" gradientTransform="matrix(-0.3195 0.0878 1.0191 3.7085 149.5376 -620.8074)">
		<stop  offset="0" style="stop-color:#FFFFFF"/>
		<stop  offset="1" style="stop-color:#000000"/>
	</linearGradient>
	
		<line fill="url(#SVGID_2_)" stroke="#000000" stroke-width="3" stroke-miterlimit="10" x1="277.203" y1="294.91" x2="282.839" y2="212.261"/>
</g>
<g id="Layer_9">
	<linearGradient id="SVGID_3_" gradientUnits="userSpaceOnUse" x1="253.1672" y1="335.7869" x2="277.26" y2="335.7869">
		<stop  offset="0" style="stop-color:#FFFFFF"/>
		<stop  offset="1" style="stop-color:#000000"/>
	</linearGradient>
	<polyline fill="url(#SVGID_3_)" stroke="#000000" stroke-width="3" stroke-miterlimit="10" points="277.26,294.074 253.69,375.692 
		253.167,377.5 	"/>
	
		<linearGradient id="SVGID_4_" gradientUnits="userSpaceOnUse" x1="157.1311" y1="334.3103" x2="181.2239" y2="334.3103" gradientTransform="matrix(-1 0 0 1 458.4272 0)">
		<stop  offset="0" style="stop-color:#FFFFFF"/>
		<stop  offset="1" style="stop-color:#000000"/>
	</linearGradient>
	<polyline fill="url(#SVGID_4_)" stroke="#000000" stroke-width="3" stroke-miterlimit="10" points="277.203,292.597 
		300.774,374.216 301.296,376.023 	"/>
</g>
<g id="Layer_7">
	<polygon fill="#494949" stroke="#000000" stroke-width="3" stroke-miterlimit="10" points="332.115,282.504 393.089,282.504 
		393.089,305.645 332.115,283.838 	"/>
	<linearGradient id="SVGID_5_" gradientUnits="userSpaceOnUse" x1="377.1672" y1="319.4998" x2="377.1672" y2="319.4998">
		<stop  offset="0" style="stop-color:#FFFFFF"/>
		<stop  offset="1" style="stop-color:#000000"/>
	</linearGradient>
	<path fill="url(#SVGID_5_)" stroke="#000000" stroke-width="3" stroke-miterlimit="10" d="M377.167,319.5"/>
</g>
<g id="reka">
	
		<linearGradient id="SVGID_6_" gradientUnits="userSpaceOnUse" x1="210.8821" y1="243.3025" x2="293.3831" y2="243.3025" gradientTransform="matrix(-0.1109 0.201 2.994 1.6512 -393.3398 -194.1451)">
		<stop  offset="0" style="stop-color:#FFFFFF"/>
		<stop  offset="1" style="stop-color:#000000"/>
	</linearGradient>
	
		<line fill="url(#SVGID_6_)" stroke="#000000" stroke-width="3" stroke-miterlimit="10" x1="333.008" y1="283.37" x2="281.279" y2="233.209"/>
</g>
<g id="reka_lewa">
	
		<linearGradient id="SVGID_7_" gradientUnits="userSpaceOnUse" x1="386.843" y1="235.259" x2="469.343" y2="235.259" gradientTransform="matrix(-0.2245 -0.048 -0.715 3.3435 529.0797 -500.8176)">
		<stop  offset="0" style="stop-color:#FFFFFF"/>
		<stop  offset="1" style="stop-color:#000000"/>
	</linearGradient>
	
		<line fill="url(#SVGID_7_)" stroke="#000000" stroke-width="3" stroke-miterlimit="10" x1="248.218" y1="297.232" x2="281.279" y2="233.209"/>
</g>
<g id="Layer_8">
	<polygon fill="#494949" stroke="#000000" stroke-width="3" stroke-miterlimit="10" points="248.218,296.91 309.193,296.91 
		309.193,320.052 248.218,298.244 	"/>
</g>
<g id="Layer_10">
	<polygon fill="#494949" stroke="#000000" stroke-width="3" stroke-miterlimit="10" points="254.602,376.023 251.616,376.023 
		234.5,461.5 271.917,461.5 	"/>
	<polygon fill="#494949" stroke="#000000" stroke-width="3" stroke-miterlimit="10" points="302.842,376.023 299.857,376.023 
		282.74,461.5 320.157,461.5 	"/>
</g>
<g id="Layer_3" display="none">
	
		<image display="inline" overflow="visible" width="400" height="300" xlink:href="n game.png"  transform="matrix(6.2071 0.0083 -0.0083 6.2071 -686.0359 -162.4104)">
	</image>
</g>
</svg>
