<?xml version="1.0" encoding="UTF-8" standalone="no"?>
<!-- Created with Inkscape (http://www.inkscape.org/) -->

<svg
   xmlns:dc="http://purl.org/dc/elements/1.1/"
   xmlns:cc="http://creativecommons.org/ns#"
   xmlns:rdf="http://www.w3.org/1999/02/22-rdf-syntax-ns#"
   xmlns:svg="http://www.w3.org/2000/svg"
   xmlns="http://www.w3.org/2000/svg"
   xmlns:sodipodi="http://sodipodi.sourceforge.net/DTD/sodipodi-0.dtd"
   xmlns:inkscape="http://www.inkscape.org/namespaces/inkscape"
   width="1500"
   height="1000"
   id="svg2"
   version="1.1"
   inkscape:version="0.48.2 r9819"
   sodipodi:docname="level.svg">
  <defs
     id="defs4" />
  <sodipodi:namedview
     id="base"
     pagecolor="#1b1b1b"
     bordercolor="#666666"
     borderopacity="1.0"
     inkscape:pageopacity="0.24705882"
     inkscape:pageshadow="2"
     inkscape:zoom="0.5"
     inkscape:cx="573.73803"
     inkscape:cy="495.82093"
     inkscape:document-units="px"
     inkscape:current-layer="layer1"
     showgrid="false"
     inkscape:showpageshadow="false"
     borderlayer="true"
     inkscape:window-width="1307"
     inkscape:window-height="724"
     inkscape:window-x="59"
     inkscape:window-y="0"
     inkscape:window-maximized="1"
     showguides="true"
     inkscape:guide-bbox="true" />
  <metadata
     id="metadata7">
    <rdf:RDF>
      <cc:Work
         rdf:about="">
        <dc:format>image/svg+xml</dc:format>
        <dc:type
           rdf:resource="http://purl.org/dc/dcmitype/StillImage" />
      </cc:Work>
    </rdf:RDF>
  </metadata>
  <g
     inkscape:label="Layer 1"
     inkscape:groupmode="layer"
     id="layer1"
     transform="translate(0,-52.362183)">
    <rect
       style="fill:#999999;stroke:none"
       id="rect2991"
       width="120.79205"
       height="1022.4383"
       x="-32.234478"
       y="39.60083" />
    <rect
       style="fill:#999999;fill-opacity:1;stroke:none"
       id="rect2993"
       width="1596.2681"
       height="100.78825"
       x="-43.58411"
       y="-29.674591"
       transform="translate(0,52.362183)" />
    <rect
       style="fill:#999999;fill-opacity:1;stroke:none"
       id="rect2995"
       width="138.92435"
       height="1070.5347"
       x="1399.2075"
       y="6.3435483" />
    <rect
       style="fill:#999999;fill-opacity:1;stroke:none"
       id="rect2997"
       width="1661.6442"
       height="125.30431"
       x="-43.58411"
       y="912.83179"
       transform="translate(0,52.362183)" />
    <path
       sodipodi:type="arc"
       style="fill:#654646;fill-opacity:0.43894389;stroke:#000000;stroke-width:4.12038993999999992;stroke-miterlimit:4;stroke-dasharray:none"
       id="path3001"
       sodipodi:cx="389.53299"
       sodipodi:cy="441.57858"
       sodipodi:rx="62.652157"
       sodipodi:ry="70.824181"
       d="m 452.18515,441.57858 c 0,39.11512 -28.05033,70.82418 -62.65216,70.82418 -34.60183,0 -62.65216,-31.70906 -62.65216,-70.82418 0,-39.11511 28.05033,-70.82418 62.65216,-70.82418 34.60183,0 62.65216,31.70907 62.65216,70.82418 z"
       transform="matrix(0.77411541,0,0,0.68479437,-132.29115,603.20159)">
      <title
         id="title3771">ninja</title>
    </path>
    <path
       style="fill:#999999;stroke:none"
       d="m 431.63454,970.64705 c 110.96004,-73.14946 226.45159,-98.18207 355.93955,25.40313 l -170.00901,47.94712 z"
       id="ramp"
       inkscape:connector-curvature="0"
       sodipodi:nodetypes="cccc"
       inkscape:label="#path3794" />
    <rect
       style="fill:#0000ff;fill-opacity:0.37623764;stroke:#000080;stroke-width:3;stroke-miterlimit:4;stroke-dasharray:none"
       id="rect3798"
       width="97"
       height="97"
       x="1244"
       y="866.36218">
      <title
         id="title3800">exit</title>
    </rect>
    <path
       style="fill:none;stroke:#ffff00;stroke-width:1px;stroke-linecap:butt;stroke-linejoin:miter;stroke-opacity:1"
       d="m 265.17157,915.09011 160,0 c 132.03865,-98.66022 253.93419,-82.36527 370,0 l 364.00003,0"
       id="path3804"
       inkscape:connector-curvature="0"
       sodipodi:nodetypes="cccc" />
    <rect
       style="fill:#d06637;fill-opacity:0.73597358;stroke:#ff0000;stroke-width:2;stroke-linecap:butt;stroke-linejoin:round;stroke-miterlimit:4;stroke-dasharray:none"
       id="rec"
       width="98"
       height="98"
       x="43.215324"
       y="342.61282"
       transform="matrix(0.88378736,-0.46788878,0.46788878,0.88378736,0,0)"
       inkscape:label="#rect3816" />
    <path
       style="fill:#000000;fill-opacity:0.22112211;stroke:#000000;stroke-width:3;stroke-linecap:butt;stroke-linejoin:round;stroke-miterlimit:4;stroke-opacity:1;stroke-dasharray:none"
       d="m 581.18678,710.11818 96.95623,12.43208 -12.46388,97.20419 -96.95623,-12.4321 12.45485,-97.13362 90.85406,61.98727 -103.2771,34.8984 z"
       id="dir"
       inkscape:connector-curvature="0"
       sodipodi:nodetypes="cccccccc"
       inkscape:label="#path3818" />
    <g
       transform="translate(0,52.362183)"
       style="font-size:40px;font-style:normal;font-weight:normal;line-height:125%;letter-spacing:0px;word-spacing:0px;fill:#000000;fill-opacity:1;stroke:none;font-family:Sans"
       id="text2994">
      <path
         d="m 458.56641,342 -3.65235,0 0,-2.32422 c -0.32553,0.22136 -0.76824,0.53386 -1.32812,0.9375 -0.54689,0.39063 -1.08075,0.70313 -1.60157,0.9375 -0.61199,0.29948 -1.31511,0.54688 -2.10937,0.74219 -0.79428,0.20833 -1.72527,0.3125 -2.79297,0.3125 -1.96615,0 -3.63282,-0.65104 -5,-1.95313 -1.36719,-1.30208 -2.05078,-2.96223 -2.05078,-4.98047 0,-1.65363 0.35156,-2.98827 1.05469,-4.0039 0.71614,-1.02864 1.73176,-1.83593 3.04687,-2.42188 1.32812,-0.58592 2.92317,-0.98306 4.78516,-1.1914 1.86197,-0.20832 3.86066,-0.36457 5.99609,-0.46875 l 0,-0.56641 c -1e-5,-0.83332 -0.14975,-1.52342 -0.44922,-2.07031 -0.28647,-0.54686 -0.70314,-0.97655 -1.25,-1.28906 -0.52084,-0.29946 -1.14584,-0.50129 -1.875,-0.60547 -0.72918,-0.10415 -1.49089,-0.15623 -2.28515,-0.15625 -0.96355,2e-5 -2.03777,0.13022 -3.22266,0.39062 -1.1849,0.24742 -2.40886,0.612 -3.67187,1.09375 l -0.19532,0 0,-3.73047 c 0.71614,-0.19529 1.7513,-0.41013 3.10547,-0.64453 1.35416,-0.23435 2.68879,-0.35154 4.00391,-0.35156 1.53644,2e-5 2.87108,0.13023 4.0039,0.39062 1.14582,0.24742 2.1354,0.67711 2.96875,1.28907 0.8203,0.59898 1.4453,1.37371 1.875,2.32422 0.42967,0.95053 0.64452,2.12892 0.64454,3.53515 l 0,14.80469 m -3.65235,-5.37109 0,-6.07422 c -1.1198,0.0651 -2.44142,0.16277 -3.96484,0.29297 -1.51043,0.13022 -2.70834,0.31902 -3.59375,0.5664 -1.0547,0.29949 -1.90756,0.76824 -2.5586,1.40625 -0.65104,0.62501 -0.97656,1.4909 -0.97656,2.59766 0,1.25 0.3776,2.19401 1.13281,2.83203 0.75521,0.625 1.90755,0.9375 3.45704,0.9375 1.28905,0 2.46743,-0.24739 3.53515,-0.74219 1.0677,-0.50781 2.05728,-1.11327 2.96875,-1.8164"
         style=""
         id="path2999" />
      <path
         d="m 484.875,330.92578 c -2e-5,1.82293 -0.26044,3.46355 -0.78125,4.92188 -0.50783,1.45833 -1.19794,2.68229 -2.07031,3.67187 -0.9245,1.02865 -1.94012,1.80339 -3.04688,2.32422 -1.10678,0.50781 -2.32423,0.76172 -3.65234,0.76172 -1.23699,0 -2.31772,-0.14974 -3.24219,-0.44922 -0.92449,-0.28646 -1.83594,-0.67708 -2.73437,-1.17188 L 469.11328,342 l -3.4375,0 0,-30.39063 3.67188,0 0,10.85938 c 1.02863,-0.84633 2.12238,-1.53644 3.28125,-2.07031 1.15884,-0.54686 2.46092,-0.82029 3.90625,-0.82032 2.5781,3e-5 4.60935,0.98961 6.09375,2.96875 1.49737,1.97919 2.24607,4.77216 2.24609,8.37891 m -3.78906,0.0977 c -2e-5,-2.60416 -0.42971,-4.57681 -1.28907,-5.91797 -0.85939,-1.35415 -2.2461,-2.03123 -4.16015,-2.03125 -1.06772,2e-5 -2.14845,0.23439 -3.24219,0.70312 -1.09376,0.45575 -2.10938,1.0482 -3.04687,1.77735 l 0,12.5 c 1.04165,0.46875 1.93358,0.79427 2.67578,0.97656 0.7552,0.18229 1.60806,0.27344 2.55859,0.27344 2.03124,0 3.61978,-0.66406 4.76563,-1.99219 1.15883,-1.34114 1.73826,-3.43749 1.73828,-6.28906"
         style=""
         id="path3002" />
      <path
         d="m 506.73047,340.63281 c -1.22398,0.58594 -2.38934,1.04167 -3.4961,1.36719 -1.09376,0.32552 -2.25912,0.48828 -3.49609,0.48828 -1.57553,0 -3.02084,-0.22786 -4.33594,-0.68359 -1.31511,-0.46875 -2.44141,-1.17188 -3.3789,-2.10938 -0.95053,-0.93749 -1.6862,-2.12239 -2.20703,-3.55469 -0.52084,-1.43228 -0.78126,-3.10545 -0.78125,-5.01953 -1e-5,-3.56769 0.97656,-6.36717 2.92968,-8.39843 1.96614,-2.03123 4.55729,-3.04686 7.77344,-3.04688 1.24999,2e-5 2.47394,0.1758 3.67188,0.52734 1.21092,0.35159 2.31769,0.78128 3.32031,1.28907 l 0,4.08203 -0.19531,0 c -1.11981,-0.87238 -2.27867,-1.54295 -3.47657,-2.01172 -1.18491,-0.46873 -2.34376,-0.70311 -3.47656,-0.70313 -2.08334,2e-5 -3.73048,0.70315 -4.94141,2.10938 -1.19792,1.39324 -1.79688,3.44402 -1.79687,6.15234 -10e-6,2.63022 0.58593,4.65496 1.75781,6.07422 1.18489,1.40626 2.84504,2.10938 4.98047,2.10938 0.74218,0 1.49738,-0.0977 2.26563,-0.29297 0.76821,-0.19531 1.45831,-0.44922 2.07031,-0.76172 0.53384,-0.27343 1.03514,-0.55989 1.5039,-0.85938 0.46874,-0.31249 0.83983,-0.57942 1.11329,-0.80078 l 0.19531,0 0,4.04297"
         style=""
         id="path3004" />
    </g>
  </g>
</svg>
