<?xml version="1.0" encoding="UTF-8" standalone="no"?>
<!-- Created with Inkscape (http://www.inkscape.org/) -->

<svg
   xmlns:dc="http://purl.org/dc/elements/1.1/"
   xmlns:cc="http://creativecommons.org/ns#"
   xmlns:rdf="http://www.w3.org/1999/02/22-rdf-syntax-ns#"
   xmlns:svg="http://www.w3.org/2000/svg"
   xmlns="http://www.w3.org/2000/svg"
   xmlns:sodipodi="http://sodipodi.sourceforge.net/DTD/sodipodi-0.dtd"
   xmlns:inkscape="http://www.inkscape.org/namespaces/inkscape"
   width="1500"
   height="1000"
   id="svg2"
   version="1.1"
   inkscape:version="0.48.2 r9819"
   sodipodi:docname="level.svg">
  <defs
     id="defs4" />
  <sodipodi:namedview
     id="base"
     pagecolor="#1b1b1b"
     bordercolor="#666666"
     borderopacity="1.0"
     inkscape:pageopacity="0.24705882"
     inkscape:pageshadow="2"
     inkscape:zoom="0.35355341"
     inkscape:cx="481.69079"
     inkscape:cy="436.61266"
     inkscape:document-units="px"
     inkscape:current-layer="layer1"
     showgrid="false"
     inkscape:showpageshadow="false"
     borderlayer="true"
     inkscape:window-width="1307"
     inkscape:window-height="724"
     inkscape:window-x="59"
     inkscape:window-y="0"
     inkscape:window-maximized="1"
     showguides="true"
     inkscape:guide-bbox="true" />
  <metadata
     id="metadata7">
    <rdf:RDF>
      <cc:Work
         rdf:about="">
        <dc:format>image/svg+xml</dc:format>
        <dc:type
           rdf:resource="http://purl.org/dc/dcmitype/StillImage" />
      </cc:Work>
    </rdf:RDF>
  </metadata>
  <g
     inkscape:label="Layer 1"
     inkscape:groupmode="layer"
     id="layer1"
     transform="translate(0,-52.362183)">
    <rect
       style="fill:#999999;stroke:none"
       id="rect2991"
       width="120.79205"
       height="1022.4383"
       x="-32.234478"
       y="39.60083" />
    <rect
       style="fill:#999999;fill-opacity:1;stroke:none"
       id="rect2993"
       width="1596.2681"
       height="100.78825"
       x="-43.58411"
       y="-29.674591"
       transform="translate(0,52.362183)" />
    <rect
       style="fill:#999999;fill-opacity:1;stroke:none"
       id="rect2995"
       width="138.92435"
       height="1070.5347"
       x="1399.2075"
       y="6.3435483" />
    <rect
       style="fill:#999999;fill-opacity:1;stroke:none"
       id="rect2997"
       width="1661.6442"
       height="125.30431"
       x="-43.58411"
       y="912.83179"
       transform="translate(0,52.362183)" />
    <path
       sodipodi:type="arc"
       style="fill:#654646;fill-opacity:0.43894389;stroke:#000000;stroke-width:4.12038993999999992;stroke-miterlimit:4;stroke-dasharray:none"
       id="path3001"
       sodipodi:cx="389.53299"
       sodipodi:cy="441.57858"
       sodipodi:rx="62.652157"
       sodipodi:ry="70.824181"
       d="m 452.18515,441.57858 c 0,39.11512 -28.05033,70.82418 -62.65216,70.82418 -34.60183,0 -62.65216,-31.70906 -62.65216,-70.82418 0,-39.11511 28.05033,-70.82418 62.65216,-70.82418 34.60183,0 62.65216,31.70907 62.65216,70.82418 z"
       transform="matrix(0.77411541,0,0,0.68479437,-132.29115,603.20159)">
      <title
         id="title3771">ninja</title>
    </path>
    <path
       style="fill:#999999;stroke:none"
       d="m 431.63454,970.64705 c 110.96004,-73.14946 226.45159,-98.18207 355.93955,25.40313 l -170.00901,47.94712 z"
       id="ramp"
       inkscape:connector-curvature="0"
       sodipodi:nodetypes="cccc"
       inkscape:label="#path3794" />
    <rect
       style="fill:#0000ff;fill-opacity:0.37623764;stroke:#000080;stroke-width:3;stroke-miterlimit:4;stroke-dasharray:none"
       id="rect3798"
       width="97"
       height="97"
       x="1244"
       y="866.36218">
      <title
         id="title3800">exit</title>
    </rect>
    <path
       style="fill:none;stroke:#ffff00;stroke-width:1px;stroke-linecap:butt;stroke-linejoin:miter;stroke-opacity:1"
       d="m 265.17157,915.09011 160,0 c 132.03865,-98.66022 253.93419,-82.36527 370,0 l 364.00003,0"
       id="path3804"
       inkscape:connector-curvature="0"
       sodipodi:nodetypes="cccc" />
    <rect
       style="fill:#d06637;fill-opacity:0.73597358;stroke:#ff0000;stroke-width:2;stroke-linecap:butt;stroke-linejoin:round;stroke-miterlimit:4;stroke-dasharray:none"
       id="rec"
       width="98"
       height="98"
       x="43.215324"
       y="342.61282"
       transform="matrix(0.88378736,-0.46788878,0.46788878,0.88378736,0,0)"
       inkscape:label="#rect3816" />
    <path
       style="fill:#000000;fill-opacity:0.22112211;stroke:#000000;stroke-width:3;stroke-linecap:butt;stroke-linejoin:round;stroke-miterlimit:4;stroke-opacity:1;stroke-dasharray:none"
       d="m 581.18678,710.11818 96.95623,12.43208 -12.46388,97.20419 -96.95623,-12.4321 12.45485,-97.13362 90.85406,61.98727 -103.2771,34.8984 z"
       id="dir"
       inkscape:connector-curvature="0"
       sodipodi:nodetypes="cccccccc"
       inkscape:label="#path3818" />
    <path
       sodipodi:type="arc"
       style="fill:#666666;fill-opacity:1;stroke:#1a1a1a;stroke-width:0.29851025;stroke-linecap:butt;stroke-linejoin:round;stroke-miterlimit:4;stroke-opacity:1;stroke-dasharray:none"
       id="path3006"
       sodipodi:cx="621"
       sodipodi:cy="263"
       sodipodi:rx="53"
       sodipodi:ry="53"
       d="m 674,263 c 0,29.27109 -23.72891,53 -53,53 -29.27109,0 -53,-23.72891 -53,-53 0,-29.27109 23.72891,-53 53,-53 29.27109,0 53,23.72891 53,53 z"
       transform="matrix(1.0100062,0,0,1,-6.7441977,52.362183)" />
    <rect
       style="fill:#666666;fill-opacity:1;stroke:none;stroke-width:0.30000000999999998;stroke-linecap:butt;stroke-linejoin:round;stroke-miterlimit:4;stroke-opacity:1;stroke-dasharray:none"
       id="rect3778"
       width="107"
       height="219"
       x="567"
       y="261"
       transform="translate(0,52.362183)" />
    <path
       sodipodi:type="arc"
       style="fill:#666666;fill-opacity:1;stroke:none"
       id="path3780"
       sodipodi:cx="541"
       sodipodi:cy="487"
       sodipodi:rx="55"
       sodipodi:ry="69"
       d="m 596,487 c 0,38.10765 -24.62434,69 -55,69 -30.37566,0 -55,-30.89235 -55,-69 0,-38.10765 24.62434,-69 55,-69 30.37566,0 55,30.89235 55,69 z"
       transform="translate(0,52.362183)" />
    <path
       transform="translate(152,52.362183)"
       d="m 596,487 c 0,38.10765 -24.62434,69 -55,69 -30.37566,0 -55,-30.89235 -55,-69 0,-38.10765 24.62434,-69 55,-69 30.37566,0 55,30.89235 55,69 z"
       sodipodi:ry="69"
       sodipodi:rx="55"
       sodipodi:cy="487"
       sodipodi:cx="541"
       id="path3795"
       style="fill:#666666;fill-opacity:1;stroke:none"
       sodipodi:type="arc" />
    <rect
       style="fill:#666666;fill-opacity:1;stroke:none"
       id="rect3797"
       width="152.05716"
       height="98.972275"
       x="540.16467"
       y="509.36218" />
  </g>
</svg>
